<?xml version="1.0" standalone="no"?>
<!DOCTYPE svg PUBLIC "-//W3C//DTD SVG 20010904//EN"
 "http://www.w3.org/TR/2001/REC-SVG-20010904/DTD/svg10.dtd">
<svg version="1.0" xmlns="http://www.w3.org/2000/svg"
 width="647.000000pt" height="647.000000pt" viewBox="0 0 647.000000 647.000000"
 preserveAspectRatio="xMidYMid meet">
<metadata>
Created by potrace 1.14, written by Peter Selinger 2001-2017
</metadata>
<g transform="translate(0.000000,647.000000) scale(0.100000,-0.100000)"
fill="#000000" stroke="none">
<path d="M1894 6455 c-2 -5 -3 -1459 -2 -3230 l3 -3220 668 0 c367 0 671 2
675 5 4 3 7 1155 7 2560 l0 2555 385 1 385 0 552 -550 552 -551 0 -782 0 -782
-555 -556 -556 -555 -326 0 -327 0 0 -670 c0 -369 2 -671 5 -671 3 -1 278 -2
612 -3 l607 -2 944 946 944 945 -1 1340 -1 1340 -945 945 -945 945 -1339 0
c-907 0 -1340 -3 -1342 -10z"/>
<path d="M887 5457 l-882 -882 1 -1343 0 -1342 884 -885 c487 -486 886 -883
887 -881 3 3 5 1089 3 1772 l0 131 -215 214 -215 214 0 781 0 780 213 213 212
213 0 949 c0 522 -1 949 -2 949 -2 0 -400 -397 -886 -883z"/>
</g>
</svg>
